<?xml version="1.0" encoding="UTF-8" standalone="no"?>
<!-- Created with Inkscape (http://www.inkscape.org/) -->

<svg
   xmlns:dc="http://purl.org/dc/elements/1.1/"
   xmlns:cc="http://creativecommons.org/ns#"
   xmlns:rdf="http://www.w3.org/1999/02/22-rdf-syntax-ns#"
   xmlns:svg="http://www.w3.org/2000/svg"
   xmlns="http://www.w3.org/2000/svg"
   xmlns:sodipodi="http://sodipodi.sourceforge.net/DTD/sodipodi-0.dtd"
   xmlns:inkscape="http://www.inkscape.org/namespaces/inkscape"
   width="456"
   height="456"
   id="svg2"
   version="1.1"
   inkscape:version="0.48.3.1 r9886"
   sodipodi:docname="grid19x19.svg">
  <defs
     id="defs4" />
  <sodipodi:namedview
     id="base"
     pagecolor="#ffffff"
     bordercolor="#666666"
     borderopacity="1.0"
     inkscape:pageopacity="0.0"
     inkscape:pageshadow="2"
     inkscape:zoom="0.70710678"
     inkscape:cx="192.58618"
     inkscape:cy="548.21851"
     inkscape:document-units="px"
     inkscape:current-layer="layer1"
     showgrid="false"
     inkscape:snap-grids="true"
     inkscape:window-width="1920"
     inkscape:window-height="1138"
     inkscape:window-x="1912"
     inkscape:window-y="-8"
     inkscape:window-maximized="1"
     inkscape:snap-page="false"
     inkscape:snap-midpoints="true"
     inkscape:snap-nodes="true" />
  <metadata
     id="metadata7">
    <rdf:RDF>
      <cc:Work
         rdf:about="">
        <dc:format>image/svg+xml</dc:format>
        <dc:type
           rdf:resource="http://purl.org/dc/dcmitype/StillImage" />
        <dc:title></dc:title>
      </cc:Work>
    </rdf:RDF>
  </metadata>
  <g
     inkscape:label="Layer 1"
     inkscape:groupmode="layer"
     id="layer1"
     transform="translate(0,-596.36218)">
    <rect
       style="fill:none;stroke:#000000;stroke-width:1;stroke-miterlimit:4;stroke-dasharray:none"
       id="rect3006"
       width="431.98853"
       height="431.99826"
       x="12.00087"
       y="608.36304" />
    <path
       style="fill:none;stroke:#000000;stroke-width:1;stroke-linecap:butt;stroke-linejoin:miter;stroke-miterlimit:4;stroke-opacity:1;stroke-dasharray:none"
       d="m 36,609.33366 0,431.02854 0,0"
       id="path3018"
       inkscape:connector-curvature="0" />
    <path
       style="fill:none;stroke:#000000;stroke-width:0.99959767;stroke-linecap:butt;stroke-linejoin:miter;stroke-miterlimit:4;stroke-opacity:1;stroke-dasharray:none"
       d="m 12.499799,1016.3624 431.000401,0"
       id="path3022"
       inkscape:connector-curvature="0" />
    <path
       style="fill:none;stroke:#000000;stroke-width:1;stroke-linecap:butt;stroke-linejoin:miter;stroke-miterlimit:4;stroke-opacity:1;stroke-dasharray:none"
       d="m 60,608.84801 0,431.02849 0,0"
       id="path3018-1"
       inkscape:connector-curvature="0" />
    <path
       style="fill:#000470;fill-opacity:1;stroke:#000000;stroke-width:1;stroke-linecap:butt;stroke-linejoin:miter;stroke-miterlimit:4;stroke-opacity:1;stroke-dasharray:none"
       d="m 84,608.84801 0,431.02849 0,0"
       id="path3018-1-7"
       inkscape:connector-curvature="0" />
    <path
       style="fill:none;stroke:#000000;stroke-width:1;stroke-linecap:butt;stroke-linejoin:miter;stroke-miterlimit:4;stroke-opacity:1;stroke-dasharray:none"
       d="m 108,608.84791 0,431.02849 0,0"
       id="path3018-4"
       inkscape:connector-curvature="0" />
    <path
       style="fill:none;stroke:#000000;stroke-width:1;stroke-linecap:butt;stroke-linejoin:miter;stroke-miterlimit:4;stroke-opacity:1;stroke-dasharray:none"
       d="m 132,608.84801 0,431.02849 0,0"
       id="path3018-1-0"
       inkscape:connector-curvature="0" />
    <path
       style="fill:#000470;fill-opacity:1;stroke:#000000;stroke-width:1;stroke-linecap:butt;stroke-linejoin:miter;stroke-miterlimit:4;stroke-opacity:1;stroke-dasharray:none"
       d="m 156,608.84801 0,431.02849 0,0"
       id="path3018-1-7-9"
       inkscape:connector-curvature="0" />
    <path
       style="fill:none;stroke:#000000;stroke-width:1;stroke-linecap:butt;stroke-linejoin:miter;stroke-miterlimit:4;stroke-opacity:1;stroke-dasharray:none"
       d="m 180,608.84791 0,431.02849 0,0"
       id="path3018-48"
       inkscape:connector-curvature="0" />
    <path
       style="fill:none;stroke:#000000;stroke-width:1;stroke-linecap:butt;stroke-linejoin:miter;stroke-miterlimit:4;stroke-opacity:1;stroke-dasharray:none"
       d="m 204,608.84802 0,431.02848 0,0"
       id="path3018-1-8"
       inkscape:connector-curvature="0" />
    <path
       style="fill:#000470;fill-opacity:1;stroke:#000000;stroke-width:1;stroke-linecap:butt;stroke-linejoin:miter;stroke-miterlimit:4;stroke-opacity:1;stroke-dasharray:none"
       d="m 228,608.8337 0,431.0285 0,0"
       id="path3018-1-7-2"
       inkscape:connector-curvature="0" />
    <path
       style="fill:none;stroke:#000000;stroke-width:1;stroke-linecap:butt;stroke-linejoin:miter;stroke-miterlimit:4;stroke-opacity:1;stroke-dasharray:none"
       d="m 252,608.84792 0,431.02848 0,0"
       id="path3018-4-4"
       inkscape:connector-curvature="0" />
    <path
       style="fill:none;stroke:#000000;stroke-width:1;stroke-linecap:butt;stroke-linejoin:miter;stroke-miterlimit:4;stroke-opacity:1;stroke-dasharray:none"
       d="m 276,608.84802 0,431.02848 0,0"
       id="path3018-1-0-5"
       inkscape:connector-curvature="0" />
    <path
       style="fill:#000470;fill-opacity:1;stroke:#000000;stroke-width:1;stroke-linecap:butt;stroke-linejoin:miter;stroke-miterlimit:4;stroke-opacity:1;stroke-dasharray:none"
       d="m 300,608.84802 0,431.02848 0,0"
       id="path3018-1-7-9-5"
       inkscape:connector-curvature="0" />
    <path
       style="fill:none;stroke:#000000;stroke-width:1;stroke-linecap:butt;stroke-linejoin:miter;stroke-miterlimit:4;stroke-opacity:1;stroke-dasharray:none"
       d="m 324,608.84791 0,431.02849 0,0"
       id="path3018-17"
       inkscape:connector-curvature="0" />
    <path
       style="fill:none;stroke:#000000;stroke-width:1;stroke-linecap:butt;stroke-linejoin:miter;stroke-miterlimit:4;stroke-opacity:1;stroke-dasharray:none"
       d="m 348,608.84801 0,431.02849 0,0"
       id="path3018-1-1"
       inkscape:connector-curvature="0" />
    <path
       style="fill:#000470;fill-opacity:1;stroke:#000000;stroke-width:1;stroke-linecap:butt;stroke-linejoin:miter;stroke-miterlimit:4;stroke-opacity:1;stroke-dasharray:none"
       d="m 372,608.84801 0,431.02849 0,0"
       id="path3018-1-7-1"
       inkscape:connector-curvature="0" />
    <path
       style="fill:none;stroke:#000000;stroke-width:1;stroke-linecap:butt;stroke-linejoin:miter;stroke-miterlimit:4;stroke-opacity:1;stroke-dasharray:none"
       d="m 396,608.84791 0,431.02849 0,0"
       id="path3018-4-5"
       inkscape:connector-curvature="0" />
    <path
       style="fill:none;stroke:#000000;stroke-width:0.99959767;stroke-linecap:butt;stroke-linejoin:miter;stroke-miterlimit:4;stroke-opacity:1;stroke-dasharray:none"
       d="m 12.499799,992.36238 431.000401,0"
       id="path3022-3"
       inkscape:connector-curvature="0" />
    <path
       style="fill:none;stroke:#000000;stroke-width:0.99959767;stroke-linecap:butt;stroke-linejoin:miter;stroke-miterlimit:4;stroke-opacity:1;stroke-dasharray:none"
       d="m 12.499799,968.36238 431.000401,0"
       id="path3022-34"
       inkscape:connector-curvature="0" />
    <path
       style="fill:none;stroke:#000000;stroke-width:0.99959767;stroke-linecap:butt;stroke-linejoin:miter;stroke-miterlimit:4;stroke-opacity:1;stroke-dasharray:none"
       d="m 12.499799,944.36238 431.000401,0"
       id="path3022-3-1"
       inkscape:connector-curvature="0" />
    <path
       style="fill:none;stroke:#000000;stroke-width:0.99959767;stroke-linecap:butt;stroke-linejoin:miter;stroke-miterlimit:4;stroke-opacity:1;stroke-dasharray:none"
       d="m 12.499799,920.36238 431.000401,0"
       id="path3022-1"
       inkscape:connector-curvature="0" />
    <path
       style="fill:none;stroke:#000000;stroke-width:0.99959767;stroke-linecap:butt;stroke-linejoin:miter;stroke-miterlimit:4;stroke-opacity:1;stroke-dasharray:none"
       d="m 12.499799,896.36238 431.000401,0"
       id="path3022-3-3"
       inkscape:connector-curvature="0" />
    <path
       style="fill:none;stroke:#000000;stroke-width:0.99959767;stroke-linecap:butt;stroke-linejoin:miter;stroke-miterlimit:4;stroke-opacity:1;stroke-dasharray:none"
       d="m 12.499799,872.36238 431.000401,0"
       id="path3022-34-8"
       inkscape:connector-curvature="0" />
    <path
       style="fill:none;stroke:#000000;stroke-width:0.99959767;stroke-linecap:butt;stroke-linejoin:miter;stroke-miterlimit:4;stroke-opacity:1;stroke-dasharray:none"
       d="m 12.499799,848.36238 431.000401,0"
       id="path3022-3-1-7"
       inkscape:connector-curvature="0" />
    <path
       style="fill:none;stroke:#000000;stroke-width:0.99959767;stroke-linecap:butt;stroke-linejoin:miter;stroke-miterlimit:4;stroke-opacity:1;stroke-dasharray:none"
       d="m 12.499799,824.36238 431.000401,0"
       id="path3022-4"
       inkscape:connector-curvature="0" />
    <path
       style="fill:none;stroke:#000000;stroke-width:0.99959767;stroke-linecap:butt;stroke-linejoin:miter;stroke-miterlimit:4;stroke-opacity:1;stroke-dasharray:none"
       d="m 12.499799,800.36238 431.000401,0"
       id="path3022-3-2"
       inkscape:connector-curvature="0" />
    <path
       style="fill:none;stroke:#000000;stroke-width:0.99959767;stroke-linecap:butt;stroke-linejoin:miter;stroke-miterlimit:4;stroke-opacity:1;stroke-dasharray:none"
       d="m 12.499799,776.36238 431.000401,0"
       id="path3022-34-7"
       inkscape:connector-curvature="0" />
    <path
       style="fill:none;stroke:#000000;stroke-width:0.99959767;stroke-linecap:butt;stroke-linejoin:miter;stroke-miterlimit:4;stroke-opacity:1;stroke-dasharray:none"
       d="m 12.499799,752.36238 431.000401,0"
       id="path3022-3-1-79"
       inkscape:connector-curvature="0" />
    <path
       style="fill:none;stroke:#000000;stroke-width:0.99959767;stroke-linecap:butt;stroke-linejoin:miter;stroke-miterlimit:4;stroke-opacity:1;stroke-dasharray:none"
       d="m 12.499799,728.36238 431.000401,0"
       id="path3022-1-3"
       inkscape:connector-curvature="0" />
    <path
       style="fill:none;stroke:#000000;stroke-width:0.99959767;stroke-linecap:butt;stroke-linejoin:miter;stroke-miterlimit:4;stroke-opacity:1;stroke-dasharray:none"
       d="m 12.499799,704.36238 431.000401,0"
       id="path3022-3-3-1"
       inkscape:connector-curvature="0" />
    <path
       style="fill:none;stroke:#000000;stroke-width:0.99959767;stroke-linecap:butt;stroke-linejoin:miter;stroke-miterlimit:4;stroke-opacity:1;stroke-dasharray:none"
       d="m 12.499799,680.36238 431.000401,0"
       id="path3022-34-8-9"
       inkscape:connector-curvature="0"
       sodipodi:nodetypes="cc" />
    <path
       style="fill:none;stroke:#000000;stroke-width:0.99959767;stroke-linecap:butt;stroke-linejoin:miter;stroke-miterlimit:4;stroke-opacity:1;stroke-dasharray:none"
       d="m 12.499799,656.36238 431.000401,0"
       id="path3022-3-1-7-8"
       inkscape:connector-curvature="0" />
    <path
       style="fill:none;stroke:#000000;stroke-width:0.99959767;stroke-linecap:butt;stroke-linejoin:miter;stroke-miterlimit:4;stroke-opacity:1;stroke-dasharray:none"
       d="m 12.499799,632.36238 431.000401,0"
       id="path3022-3-1-7-8-6"
       inkscape:connector-curvature="0" />
    <path
       style="fill:none;stroke:#000000;stroke-width:1;stroke-linecap:butt;stroke-linejoin:miter;stroke-miterlimit:4;stroke-opacity:1;stroke-dasharray:none"
       d="m 420,608.84799 0,431.02851 0,0"
       id="path3018-4-5-5"
       inkscape:connector-curvature="0" />
    <path
       sodipodi:type="arc"
       style="fill:#000000;fill-opacity:1;stroke:#000000;stroke-width:1;stroke-miterlimit:4;stroke-dasharray:none"
       id="path4144"
       sodipodi:cx="85.044914"
       sodipodi:cy="680.08496"
       sodipodi:rx="6.0354452"
       sodipodi:ry="6.3097835"
       d="m 91.080359,680.08496 c 0,3.4848 -2.70216,6.30978 -6.035445,6.30978 -3.333284,0 -6.035445,-2.82498 -6.035445,-6.30978 0,-3.4848 2.702161,-6.30978 6.035445,-6.30978 3.333285,0 6.035445,2.82498 6.035445,6.30978 z"
       transform="matrix(0.76634755,0,0,0.73302811,18.826038,181.84079)" />
    <path
       sodipodi:type="arc"
       style="fill:#000000;fill-opacity:1;stroke:#000000;stroke-width:1;stroke-miterlimit:4;stroke-dasharray:none"
       id="path4144-0"
       sodipodi:cx="85.044914"
       sodipodi:cy="680.08496"
       sodipodi:rx="6.0354452"
       sodipodi:ry="6.3097835"
       d="m 91.080359,680.08496 c 0,3.4848 -2.70216,6.30978 -6.035445,6.30978 -3.333284,0 -6.035445,-2.82498 -6.035445,-6.30978 0,-3.4848 2.702161,-6.30978 6.035445,-6.30978 3.333285,0 6.035445,2.82498 6.035445,6.30978 z"
       transform="matrix(0.76634755,0,0,0.73302811,162.82604,181.84079)" />
    <path
       sodipodi:type="arc"
       style="fill:#000000;fill-opacity:1;stroke:#000000;stroke-width:1;stroke-miterlimit:4;stroke-dasharray:none"
       id="path4144-0-2"
       sodipodi:cx="85.044914"
       sodipodi:cy="680.08496"
       sodipodi:rx="6.0354452"
       sodipodi:ry="6.3097835"
       d="m 91.080359,680.08496 c 0,3.4848 -2.70216,6.30978 -6.035445,6.30978 -3.333284,0 -6.035445,-2.82498 -6.035445,-6.30978 0,-3.4848 2.702161,-6.30978 6.035445,-6.30978 3.333285,0 6.035445,2.82498 6.035445,6.30978 z"
       transform="matrix(0.76634755,0,0,0.73302811,306.82604,181.84079)" />
    <path
       sodipodi:type="arc"
       style="fill:#000000;fill-opacity:1;stroke:#000000;stroke-width:1;stroke-miterlimit:4;stroke-dasharray:none"
       id="path4144-0-8"
       sodipodi:cx="85.044914"
       sodipodi:cy="680.08496"
       sodipodi:rx="6.0354452"
       sodipodi:ry="6.3097835"
       d="m 91.080359,680.08496 c 0,3.4848 -2.70216,6.30978 -6.035445,6.30978 -3.333284,0 -6.035445,-2.82498 -6.035445,-6.30978 0,-3.4848 2.702161,-6.30978 6.035445,-6.30978 3.333285,0 6.035445,2.82498 6.035445,6.30978 z"
       transform="matrix(0.76634755,0,0,0.73302811,162.82604,325.84079)" />
    <path
       sodipodi:type="arc"
       style="fill:#000000;fill-opacity:1;stroke:#000000;stroke-width:1;stroke-miterlimit:4;stroke-dasharray:none"
       id="path4144-0-6"
       sodipodi:cx="85.044914"
       sodipodi:cy="680.08496"
       sodipodi:rx="6.0354452"
       sodipodi:ry="6.3097835"
       d="m 91.080359,680.08496 c 0,3.4848 -2.70216,6.30978 -6.035445,6.30978 -3.333284,0 -6.035445,-2.82498 -6.035445,-6.30978 0,-3.4848 2.702161,-6.30978 6.035445,-6.30978 3.333285,0 6.035445,2.82498 6.035445,6.30978 z"
       transform="matrix(0.76634755,0,0,0.73302811,18.826038,325.84079)" />
    <path
       sodipodi:type="arc"
       style="fill:#000000;fill-opacity:1;stroke:#000000;stroke-width:1;stroke-miterlimit:4;stroke-dasharray:none"
       id="path4144-0-0"
       sodipodi:cx="85.044914"
       sodipodi:cy="680.08496"
       sodipodi:rx="6.0354452"
       sodipodi:ry="6.3097835"
       d="m 91.080359,680.08496 c 0,3.4848 -2.70216,6.30978 -6.035445,6.30978 -3.333284,0 -6.035445,-2.82498 -6.035445,-6.30978 0,-3.4848 2.702161,-6.30978 6.035445,-6.30978 3.333285,0 6.035445,2.82498 6.035445,6.30978 z"
       transform="matrix(0.76634755,0,0,0.73302811,306.82604,325.84079)" />
    <path
       sodipodi:type="arc"
       style="fill:#000000;fill-opacity:1;stroke:#000000;stroke-width:1;stroke-miterlimit:4;stroke-dasharray:none"
       id="path4144-0-24"
       sodipodi:cx="85.044914"
       sodipodi:cy="680.08496"
       sodipodi:rx="6.0354452"
       sodipodi:ry="6.3097835"
       d="m 91.080359,680.08496 c 0,3.4848 -2.70216,6.30978 -6.035445,6.30978 -3.333284,0 -6.035445,-2.82498 -6.035445,-6.30978 0,-3.4848 2.702161,-6.30978 6.035445,-6.30978 3.333285,0 6.035445,2.82498 6.035445,6.30978 z"
       transform="matrix(0.76634755,0,0,0.73302811,18.826038,469.84079)" />
    <path
       sodipodi:type="arc"
       style="fill:#000000;fill-opacity:1;stroke:#000000;stroke-width:1;stroke-miterlimit:4;stroke-dasharray:none"
       id="path4144-0-86"
       sodipodi:cx="85.044914"
       sodipodi:cy="680.08496"
       sodipodi:rx="6.0354452"
       sodipodi:ry="6.3097835"
       d="m 91.080359,680.08496 c 0,3.4848 -2.70216,6.30978 -6.035445,6.30978 -3.333284,0 -6.035445,-2.82498 -6.035445,-6.30978 0,-3.4848 2.702161,-6.30978 6.035445,-6.30978 3.333285,0 6.035445,2.82498 6.035445,6.30978 z"
       transform="matrix(0.76634755,0,0,0.73302811,162.82604,469.84079)" />
    <path
       sodipodi:type="arc"
       style="fill:#000000;fill-opacity:1;stroke:#000000;stroke-width:1;stroke-miterlimit:4;stroke-dasharray:none"
       id="path4144-0-5"
       sodipodi:cx="85.044914"
       sodipodi:cy="680.08496"
       sodipodi:rx="6.0354452"
       sodipodi:ry="6.3097835"
       d="m 91.080359,680.08496 c 0,3.4848 -2.70216,6.30978 -6.035445,6.30978 -3.333284,0 -6.035445,-2.82498 -6.035445,-6.30978 0,-3.4848 2.702161,-6.30978 6.035445,-6.30978 3.333285,0 6.035445,2.82498 6.035445,6.30978 z"
       transform="matrix(0.76634755,0,0,0.73302811,306.82604,469.84079)" />
  </g>
</svg>
