<?xml version="1.0" encoding="UTF-8" standalone="no"?>
<!-- Created with Inkscape (http://www.inkscape.org/) -->

<svg
   xmlns:dc="http://purl.org/dc/elements/1.1/"
   xmlns:cc="http://creativecommons.org/ns#"
   xmlns:rdf="http://www.w3.org/1999/02/22-rdf-syntax-ns#"
   xmlns:svg="http://www.w3.org/2000/svg"
   xmlns="http://www.w3.org/2000/svg"
   xmlns:sodipodi="http://sodipodi.sourceforge.net/DTD/sodipodi-0.dtd"
   xmlns:inkscape="http://www.inkscape.org/namespaces/inkscape"
   width="336"
   height="336"
   id="svg3090"
   version="1.1"
   inkscape:version="0.48.3.1 r9886"
   sodipodi:docname="New document 4">
  <defs
     id="defs3092" />
  <sodipodi:namedview
     id="base"
     pagecolor="#ffffff"
     bordercolor="#666666"
     borderopacity="1.0"
     inkscape:pageopacity="0.0"
     inkscape:pageshadow="2"
     inkscape:zoom="3.959798"
     inkscape:cx="261.15683"
     inkscape:cy="290.94389"
     inkscape:document-units="px"
     inkscape:current-layer="layer1"
     showgrid="false"
     inkscape:window-width="1920"
     inkscape:window-height="1138"
     inkscape:window-x="1912"
     inkscape:window-y="-8"
     inkscape:window-maximized="1"
     fit-margin-top="12"
     fit-margin-left="12"
     fit-margin-bottom="12"
     fit-margin-right="12" />
  <metadata
     id="metadata3095">
    <rdf:RDF>
      <cc:Work
         rdf:about="">
        <dc:format>image/svg+xml</dc:format>
        <dc:type
           rdf:resource="http://purl.org/dc/dcmitype/StillImage" />
        <dc:title></dc:title>
      </cc:Work>
    </rdf:RDF>
  </metadata>
  <g
     inkscape:label="Layer 1"
     inkscape:groupmode="layer"
     id="layer1"
     transform="translate(0.5,-716.86218)">
    <path
       style="fill:none;stroke:#000000;stroke-width:1;stroke-linecap:butt;stroke-linejoin:miter;stroke-miterlimit:4;stroke-opacity:1;stroke-dasharray:none"
       d="m 12,1016.4167 311.11244,0"
       id="path3022"
       inkscape:connector-curvature="0" />
    <path
       style="fill:none;stroke:#000000;stroke-width:1;stroke-linecap:butt;stroke-linejoin:miter;stroke-miterlimit:4;stroke-opacity:1;stroke-dasharray:none"
       d="m 12,990.10581 311.11244,0"
       id="path3022-3"
       inkscape:connector-curvature="0" />
    <path
       style="fill:none;stroke:#000000;stroke-width:1;stroke-linecap:butt;stroke-linejoin:miter;stroke-miterlimit:4;stroke-opacity:1;stroke-dasharray:none"
       d="m 12,963.79489 311.11244,0"
       id="path3022-34"
       inkscape:connector-curvature="0" />
    <path
       style="fill:none;stroke:#000000;stroke-width:1;stroke-linecap:butt;stroke-linejoin:miter;stroke-miterlimit:4;stroke-opacity:1;stroke-dasharray:none"
       d="m 12,937.48398 311.11244,0"
       id="path3022-3-1"
       inkscape:connector-curvature="0" />
    <path
       style="fill:none;stroke:#000000;stroke-width:1;stroke-linecap:butt;stroke-linejoin:miter;stroke-miterlimit:4;stroke-opacity:1;stroke-dasharray:none"
       d="m 12,911.17308 311.11244,0"
       id="path3022-1"
       inkscape:connector-curvature="0" />
    <path
       style="fill:none;stroke:#000000;stroke-width:1;stroke-linecap:butt;stroke-linejoin:miter;stroke-miterlimit:4;stroke-opacity:1;stroke-dasharray:none"
       d="m 12,884.86218 311.11244,0"
       id="path3022-3-3"
       inkscape:connector-curvature="0" />
    <path
       style="fill:none;stroke:#000000;stroke-width:1;stroke-linecap:butt;stroke-linejoin:miter;stroke-miterlimit:4;stroke-opacity:1;stroke-dasharray:none"
       d="m 12,858.55129 311.11244,0"
       id="path3022-34-8"
       inkscape:connector-curvature="0" />
    <path
       style="fill:none;stroke:#000000;stroke-width:1;stroke-linecap:butt;stroke-linejoin:miter;stroke-miterlimit:4;stroke-opacity:1;stroke-dasharray:none"
       d="m 12,832.24038 311.11244,0"
       id="path3022-3-1-7"
       inkscape:connector-curvature="0" />
    <path
       style="fill:none;stroke:#000000;stroke-width:1;stroke-linecap:butt;stroke-linejoin:miter;stroke-miterlimit:4;stroke-opacity:1;stroke-dasharray:none"
       d="m 12,805.87409 311.11244,0"
       id="path3022-4"
       inkscape:connector-curvature="0" />
    <path
       style="fill:none;stroke:#000000;stroke-width:1;stroke-linecap:butt;stroke-linejoin:miter;stroke-miterlimit:4;stroke-opacity:1;stroke-dasharray:none"
       d="m 12,779.61858 311.11244,0"
       id="path3022-3-2"
       inkscape:connector-curvature="0" />
    <path
       style="fill:none;stroke:#000000;stroke-width:1;stroke-linecap:butt;stroke-linejoin:miter;stroke-miterlimit:4;stroke-opacity:1;stroke-dasharray:none"
       d="m 12,753.30769 311.11244,0"
       id="path3022-34-7"
       inkscape:connector-curvature="0" />
    <path
       sodipodi:type="arc"
       style="fill:#000000;fill-opacity:1;stroke:#000000;stroke-width:1.33421803;stroke-miterlimit:4;stroke-dasharray:none"
       id="path4144-0-8"
       sodipodi:cx="85.044914"
       sodipodi:cy="680.08496"
       sodipodi:rx="6.0354452"
       sodipodi:ry="6.3097835"
       d="m 91.080359,680.08496 c 0,3.4848 -2.70216,6.30978 -6.035445,6.30978 -3.333284,0 -6.035445,-2.82498 -6.035445,-6.30978 0,-3.4848 2.702161,-6.30978 6.035445,-6.30978 3.333285,0 6.035445,2.82498 6.035445,6.30978 z"
       transform="matrix(0.76634755,0,0,0.73302811,102.45129,307.34054)" />
    <path
       sodipodi:type="arc"
       style="fill:#000000;fill-opacity:1;stroke:#000000;stroke-width:1.33421803;stroke-miterlimit:4;stroke-dasharray:none"
       id="path4144-0-6"
       sodipodi:cx="85.044914"
       sodipodi:cy="680.08496"
       sodipodi:rx="6.0354452"
       sodipodi:ry="6.3097835"
       d="m 91.080359,680.08496 c 0,3.4848 -2.70216,6.30978 -6.035445,6.30978 -3.333284,0 -6.035445,-2.82498 -6.035445,-6.30978 0,-3.4848 2.702161,-6.30978 6.035445,-6.30978 3.333285,0 6.035445,2.82498 6.035445,6.30978 z"
       transform="matrix(0.76634755,0,0,0.73302811,23.451287,307.34054)" />
    <path
       sodipodi:type="arc"
       style="fill:#000000;fill-opacity:1;stroke:#000000;stroke-width:1.33421803;stroke-miterlimit:4;stroke-dasharray:none"
       id="path4144-0-0"
       sodipodi:cx="85.044914"
       sodipodi:cy="680.08496"
       sodipodi:rx="6.0354452"
       sodipodi:ry="6.3097835"
       d="m 91.080359,680.08496 c 0,3.4848 -2.70216,6.30978 -6.035445,6.30978 -3.333284,0 -6.035445,-2.82498 -6.035445,-6.30978 0,-3.4848 2.702161,-6.30978 6.035445,-6.30978 3.333285,0 6.035445,2.82498 6.035445,6.30978 z"
       transform="matrix(0.76634755,0,0,0.73302811,181.32629,307.34054)" />
    <path
       sodipodi:type="arc"
       style="fill:#000000;fill-opacity:1;stroke:#000000;stroke-width:1.33421803;stroke-miterlimit:4;stroke-dasharray:none"
       id="path4144-0-24"
       sodipodi:cx="85.044914"
       sodipodi:cy="680.08496"
       sodipodi:rx="6.0354452"
       sodipodi:ry="6.3097835"
       d="m 91.080359,680.08496 c 0,3.4848 -2.70216,6.30978 -6.035445,6.30978 -3.333284,0 -6.035445,-2.82498 -6.035445,-6.30978 0,-3.4848 2.702161,-6.30978 6.035445,-6.30978 3.333285,0 6.035445,2.82498 6.035445,6.30978 z"
       transform="matrix(0.76634755,0,0,0.73302811,23.451287,465.21554)" />
    <path
       sodipodi:type="arc"
       style="fill:#000000;fill-opacity:1;stroke:#000000;stroke-width:1.33421803;stroke-miterlimit:4;stroke-dasharray:none"
       id="path4144-0-86"
       sodipodi:cx="85.044914"
       sodipodi:cy="680.08496"
       sodipodi:rx="6.0354452"
       sodipodi:ry="6.3097835"
       d="m 91.080359,680.08496 c 0,3.4848 -2.70216,6.30978 -6.035445,6.30978 -3.333284,0 -6.035445,-2.82498 -6.035445,-6.30978 0,-3.4848 2.702161,-6.30978 6.035445,-6.30978 3.333285,0 6.035445,2.82498 6.035445,6.30978 z"
       transform="matrix(0.76634755,0,0,0.73302811,102.45129,465.21554)" />
    <path
       sodipodi:type="arc"
       style="fill:#000000;fill-opacity:1;stroke:#000000;stroke-width:1.33421803;stroke-miterlimit:4;stroke-dasharray:none"
       id="path4144-0-5"
       sodipodi:cx="85.044914"
       sodipodi:cy="680.08496"
       sodipodi:rx="6.0354452"
       sodipodi:ry="6.3097835"
       d="m 91.080359,680.08496 c 0,3.4848 -2.70216,6.30978 -6.035445,6.30978 -3.333284,0 -6.035445,-2.82498 -6.035445,-6.30978 0,-3.4848 2.702161,-6.30978 6.035445,-6.30978 3.333285,0 6.035445,2.82498 6.035445,6.30978 z"
       transform="matrix(0.76634755,0,0,0.73302811,181.32629,465.21554)" />
    <rect
       style="fill:none;stroke:#000000;stroke-width:1;stroke-miterlimit:4;stroke-opacity:1;stroke-dasharray:none"
       id="rect3909"
       width="312"
       height="312"
       x="11.5"
       y="728.86218" />
    <path
       style="fill:none;stroke:#000000;stroke-width:0.99999881;stroke-linecap:butt;stroke-linejoin:miter;stroke-miterlimit:4;stroke-opacity:1;stroke-dasharray:none"
       d="m 36.000042,728.8626 0,310.9999 0,0"
       id="path3018"
       inkscape:connector-curvature="0" />
    <path
       style="fill:none;stroke:#000000;stroke-width:1.00000072;stroke-linecap:butt;stroke-linejoin:miter;stroke-miterlimit:4;stroke-opacity:1;stroke-dasharray:none"
       d="m 62.368289,728.862 0,310.9999 0,0"
       id="path3018-1"
       inkscape:connector-curvature="0" />
    <path
       style="fill:#000470;fill-opacity:1;stroke:#000000;stroke-width:0.99999911;stroke-linecap:butt;stroke-linejoin:miter;stroke-miterlimit:4;stroke-opacity:1;stroke-dasharray:none"
       d="m 88.679438,728.86195 0,311.00005 0,0"
       id="path3018-1-7"
       inkscape:connector-curvature="0" />
    <path
       style="fill:none;stroke:#000000;stroke-width:0.99999911;stroke-linecap:butt;stroke-linejoin:miter;stroke-miterlimit:4;stroke-opacity:1;stroke-dasharray:none"
       d="m 114.99329,728.86246 0,310.99904 0,0"
       id="path3018-4"
       inkscape:connector-curvature="0" />
    <path
       style="fill:none;stroke:#000000;stroke-width:0.99999911;stroke-linecap:butt;stroke-linejoin:miter;stroke-miterlimit:4;stroke-opacity:1;stroke-dasharray:none"
       d="m 141.30164,728.86198 0,311.00002 0,0"
       id="path3018-1-0"
       inkscape:connector-curvature="0" />
    <path
       style="fill:#000470;fill-opacity:1;stroke:#000000;stroke-width:0.99999911;stroke-linecap:butt;stroke-linejoin:miter;stroke-miterlimit:4;stroke-opacity:1;stroke-dasharray:none"
       d="m 167.61557,728.86195 0,311.00005 0,0"
       id="path3018-1-7-9"
       inkscape:connector-curvature="0" />
    <path
       style="fill:none;stroke:#000000;stroke-width:0.99999917;stroke-linecap:butt;stroke-linejoin:miter;stroke-miterlimit:4;stroke-opacity:1;stroke-dasharray:none"
       d="m 193.92432,728.86195 0,311.00005 0,0"
       id="path3018-48"
       inkscape:connector-curvature="0" />
    <path
       style="fill:none;stroke:#000000;stroke-width:0.99999917;stroke-linecap:butt;stroke-linejoin:miter;stroke-miterlimit:4;stroke-opacity:1;stroke-dasharray:none"
       d="m 220.23576,728.86201 0,310.99989 0,0"
       id="path3018-1-8"
       inkscape:connector-curvature="0" />
    <path
       style="fill:#000470;fill-opacity:1;stroke:#000000;stroke-width:1.0003798;stroke-linecap:butt;stroke-linejoin:miter;stroke-miterlimit:4;stroke-opacity:1;stroke-dasharray:none"
       d="m 246.43354,728.86235 0,310.98935 0,0"
       id="path3018-1-7-2"
       inkscape:connector-curvature="0" />
    <path
       style="fill:none;stroke:#000000;stroke-width:1.00039589;stroke-linecap:butt;stroke-linejoin:miter;stroke-miterlimit:4;stroke-opacity:1;stroke-dasharray:none"
       d="m 272.74443,728.86239 0,310.99951 0,0"
       id="path3018-4-4"
       inkscape:connector-curvature="0" />
    <path
       style="fill:none;stroke:#000000;stroke-width:1.00039589;stroke-linecap:butt;stroke-linejoin:miter;stroke-miterlimit:4;stroke-opacity:1;stroke-dasharray:none"
       d="m 299.05529,728.86247 0,310.99953 0,0"
       id="path3018-1-0-5"
       inkscape:connector-curvature="0" />
    <path
       sodipodi:type="arc"
       style="fill:#000000;fill-opacity:1;stroke:#000000;stroke-width:1.33421803;stroke-miterlimit:4;stroke-dasharray:none"
       id="path4144-0-8-1"
       sodipodi:cx="85.044914"
       sodipodi:cy="680.08496"
       sodipodi:rx="6.0354452"
       sodipodi:ry="6.3097835"
       d="m 91.080359,680.08496 c 0,3.4848 -2.70216,6.30978 -6.035445,6.30978 -3.333284,0 -6.035445,-2.82498 -6.035445,-6.30978 0,-3.4848 2.702161,-6.30978 6.035445,-6.30978 3.333285,0 6.035445,2.82498 6.035445,6.30978 z"
       transform="matrix(0.76634755,0,0,0.73302811,181.32629,386.21554)" />
    <path
       sodipodi:type="arc"
       style="fill:#000000;fill-opacity:1;stroke:#000000;stroke-width:1.33421803;stroke-miterlimit:4;stroke-dasharray:none"
       id="path4144-0-6-7"
       sodipodi:cx="85.044914"
       sodipodi:cy="680.08496"
       sodipodi:rx="6.0354452"
       sodipodi:ry="6.3097835"
       d="m 91.080359,680.08496 c 0,3.4848 -2.70216,6.30978 -6.035445,6.30978 -3.333284,0 -6.035445,-2.82498 -6.035445,-6.30978 0,-3.4848 2.702161,-6.30978 6.035445,-6.30978 3.333285,0 6.035445,2.82498 6.035445,6.30978 z"
       transform="matrix(0.76634755,0,0,0.73302811,23.451287,386.21554)" />
    <path
       sodipodi:type="arc"
       style="fill:#000000;fill-opacity:1;stroke:#000000;stroke-width:1.33421803;stroke-miterlimit:4;stroke-dasharray:none"
       id="path4144-0-24-4"
       sodipodi:cx="85.044914"
       sodipodi:cy="680.08496"
       sodipodi:rx="6.0354452"
       sodipodi:ry="6.3097835"
       d="m 91.080359,680.08496 c 0,3.4848 -2.70216,6.30978 -6.035445,6.30978 -3.333284,0 -6.035445,-2.82498 -6.035445,-6.30978 0,-3.4848 2.702161,-6.30978 6.035445,-6.30978 3.333285,0 6.035445,2.82498 6.035445,6.30978 z"
       transform="matrix(0.76634755,0,0,0.73302811,102.45129,386.21554)" />
  </g>
</svg>
